<svg id="Layer_2" data-name="Layer 2" xmlns="http://www.w3.org/2000/svg" viewBox="0 0 926.52 926.52"><defs><style>.cls-1{fill:#f3f4f4;}.cls-1,.cls-2,.cls-3,.cls-5{stroke:#e6e7e8;stroke-miterlimit:10;stroke-width:8px;}.cls-2{fill:#fff;}.cls-3{fill:#ededee;}.cls-4{fill:#e6e7e8;}.cls-5{fill:none;}.cls-6{fill:#f1f2f2;}.cls-7{fill:#d4effc;}</style></defs><circle class="cls-1" cx="463.26" cy="463.26" r="459.26"/><path class="cls-2" d="M917.25,759.47H146.41a20.75,20.75,0,0,1-20.75-20.75V249.36a20.75,20.75,0,0,1,20.75-20.75H917.25A20.75,20.75,0,0,1,938,249.36V738.72A20.75,20.75,0,0,1,917.25,759.47Z" transform="translate(-76.74 -76.74)"/><line class="cls-1" x1="861.26" y1="216.77" x2="48.92" y2="216.77"/><path class="cls-3" d="M125.66,289.27l.62-39.2a20,20,0,0,1,20.07-21.46h771A20.69,20.69,0,0,1,938,249.31v44.2" transform="translate(-76.74 -76.74)"/><circle class="cls-4" cx="92.43" cy="184.32" r="13.36"/><circle class="cls-4" cx="130.64" cy="184.32" r="13.36"/><circle class="cls-4" cx="168.37" cy="277.15" r="13.36"/><rect class="cls-5" x="141.17" y="252.33" width="186.13" height="186.13" rx="19.53"/><rect class="cls-4" x="192.11" y="268.23" width="69.87" height="5.13" rx="2.57"/><rect class="cls-4" x="168.32" y="310.1" width="120.64" height="8.61" rx="2.57"/><rect class="cls-6" x="192.11" y="282.35" width="32.68" height="5.13" rx="2.57"/><rect class="cls-6" x="160.96" y="341.34" width="42.3" height="16.05" rx="2.57"/><rect class="cls-6" x="209.3" y="341.34" width="46.64" height="16.05" rx="2.57"/><rect class="cls-6" x="160.96" y="364.49" width="51.06" height="16.05" rx="2.57"/><rect class="cls-7" x="275" y="410" width="39.83" height="16.05" rx="2.57"/><rect class="cls-6" x="261.98" y="364.49" width="34.34" height="16.05" rx="2.57"/><rect class="cls-6" x="261.98" y="341.34" width="39.23" height="16.05" rx="2.57"/><rect class="cls-6" x="293.05" y="266.3" width="21.79" height="14.12" rx="3.61"/><circle class="cls-4" cx="397.39" cy="275.17" r="13.36"/><rect class="cls-5" x="370.2" y="250.34" width="186.13" height="186.13" rx="19.53"/><rect class="cls-4" x="421.13" y="266.24" width="69.87" height="5.13" rx="2.57"/><rect class="cls-4" x="397.34" y="308.12" width="120.64" height="8.61" rx="2.57"/><rect class="cls-6" x="421.13" y="280.36" width="32.68" height="5.13" rx="2.57"/><rect class="cls-6" x="389.98" y="339.35" width="42.3" height="16.05" rx="2.57"/><rect class="cls-6" x="438.32" y="339.35" width="46.64" height="16.05" rx="2.57"/><rect class="cls-6" x="389.98" y="362.5" width="51.06" height="16.05" rx="2.57"/><rect class="cls-7" x="504.03" y="408.01" width="39.83" height="16.05" rx="2.57"/><rect class="cls-6" x="491" y="362.5" width="34.34" height="16.05" rx="2.57"/><rect class="cls-6" x="491" y="339.35" width="39.23" height="16.05" rx="2.57"/><rect class="cls-6" x="522.07" y="264.32" width="21.79" height="14.12" rx="3.61"/><circle class="cls-4" cx="626.41" cy="279.14" r="13.36"/><rect class="cls-5" x="599.22" y="254.31" width="186.13" height="186.13" rx="19.53"/><rect class="cls-4" x="650.15" y="270.22" width="69.87" height="5.13" rx="2.57"/><rect class="cls-4" x="626.37" y="312.09" width="120.64" height="8.61" rx="2.57"/><rect class="cls-6" x="650.15" y="284.33" width="32.68" height="5.13" rx="2.57"/><rect class="cls-6" x="619" y="343.32" width="42.3" height="16.05" rx="2.57"/><rect class="cls-6" x="667.34" y="343.32" width="46.64" height="16.05" rx="2.57"/><rect class="cls-6" x="619" y="366.47" width="51.06" height="16.05" rx="2.57"/><rect class="cls-7" x="733.05" y="411.98" width="39.83" height="16.05" rx="2.57"/><rect class="cls-6" x="720.03" y="366.47" width="34.34" height="16.05" rx="2.57"/><rect class="cls-6" x="720.03" y="343.32" width="39.23" height="16.05" rx="2.57"/><rect class="cls-6" x="751.09" y="268.29" width="21.79" height="14.12" rx="3.61"/><circle class="cls-4" cx="168.37" cy="491.66" r="13.36"/><rect class="cls-5" x="141.17" y="466.84" width="186.13" height="186.13" rx="19.53"/><rect class="cls-4" x="192.11" y="482.74" width="69.87" height="5.13" rx="2.57"/><rect class="cls-4" x="168.32" y="524.61" width="120.64" height="8.61" rx="2.57"/><rect class="cls-6" x="192.11" y="496.85" width="32.68" height="5.13" rx="2.57"/><rect class="cls-6" x="160.96" y="555.84" width="42.3" height="16.05" rx="2.57"/><rect class="cls-6" x="209.3" y="555.84" width="46.64" height="16.05" rx="2.57"/><rect class="cls-6" x="160.96" y="578.99" width="51.06" height="16.05" rx="2.57"/><rect class="cls-7" x="275" y="624.5" width="39.83" height="16.05" rx="2.57"/><rect class="cls-6" x="261.98" y="578.99" width="34.34" height="16.05" rx="2.57"/><rect class="cls-6" x="261.98" y="555.84" width="39.23" height="16.05" rx="2.57"/><rect class="cls-6" x="293.05" y="480.81" width="21.79" height="14.12" rx="3.61"/><circle class="cls-4" cx="397.39" cy="489.68" r="13.36"/><rect class="cls-5" x="370.2" y="464.85" width="186.13" height="186.13" rx="19.53"/><rect class="cls-4" x="421.13" y="480.75" width="69.87" height="5.13" rx="2.57"/><rect class="cls-4" x="397.34" y="522.62" width="120.64" height="8.61" rx="2.57"/><rect class="cls-6" x="421.13" y="494.87" width="32.68" height="5.13" rx="2.57"/><rect class="cls-6" x="389.98" y="553.86" width="42.3" height="16.05" rx="2.57"/><rect class="cls-6" x="438.32" y="553.86" width="46.64" height="16.05" rx="2.57"/><rect class="cls-6" x="389.98" y="577.01" width="51.06" height="16.05" rx="2.57"/><rect class="cls-7" x="504.03" y="622.52" width="39.83" height="16.05" rx="2.57"/><rect class="cls-6" x="491" y="577.01" width="34.34" height="16.05" rx="2.57"/><rect class="cls-6" x="491" y="553.86" width="39.23" height="16.05" rx="2.57"/><rect class="cls-6" x="522.07" y="478.82" width="21.79" height="14.12" rx="3.61"/><circle class="cls-4" cx="626.41" cy="493.65" r="13.36"/><rect class="cls-5" x="599.22" y="468.82" width="186.13" height="186.13" rx="19.53"/><rect class="cls-4" x="650.15" y="484.72" width="69.87" height="5.13" rx="2.57"/><rect class="cls-4" x="626.37" y="526.6" width="120.64" height="8.61" rx="2.57"/><rect class="cls-6" x="650.15" y="498.84" width="32.68" height="5.13" rx="2.57"/><rect class="cls-6" x="619" y="557.83" width="42.3" height="16.05" rx="2.57"/><rect class="cls-6" x="667.34" y="557.83" width="46.64" height="16.05" rx="2.57"/><rect class="cls-6" x="619" y="580.98" width="51.06" height="16.05" rx="2.57"/><rect class="cls-7" x="733.05" y="626.49" width="39.83" height="16.05" rx="2.57"/><rect class="cls-6" x="720.03" y="580.98" width="34.34" height="16.05" rx="2.57"/><rect class="cls-6" x="720.03" y="557.83" width="39.23" height="16.05" rx="2.57"/><rect class="cls-6" x="751.09" y="482.8" width="21.79" height="14.12" rx="3.61"/></svg>