<svg id="Layer_2" data-name="Layer 2" xmlns="http://www.w3.org/2000/svg" viewBox="0 0 820.35 538.86"><defs><style>.cls-1{fill:#fff;}.cls-1,.cls-2,.cls-3,.cls-5{stroke:#e6e7e8;stroke-miterlimit:10;stroke-width:8px;}.cls-2{fill:#f3f4f4;}.cls-3{fill:#ededee;}.cls-4{fill:#e6e7e8;}.cls-5{fill:none;}.cls-6{fill:#f1f2f2;}.cls-7{fill:#d4effc;}</style></defs><path class="cls-1" d="M917.25,759.47H146.41a20.75,20.75,0,0,1-20.75-20.75V249.36a20.75,20.75,0,0,1,20.75-20.75H917.25A20.75,20.75,0,0,1,938,249.36V738.72A20.75,20.75,0,0,1,917.25,759.47Z" transform="translate(-121.66 -224.61)"/><line class="cls-2" x1="816.35" y1="68.9" x2="4" y2="68.9"/><path class="cls-3" d="M125.66,289.27l.62-39.2a20,20,0,0,1,20.07-21.46h771A20.69,20.69,0,0,1,938,249.31v44.2" transform="translate(-121.66 -224.61)"/><circle class="cls-4" cx="47.51" cy="36.45" r="13.36"/><circle class="cls-4" cx="85.73" cy="36.45" r="13.36"/><circle class="cls-4" cx="123.45" cy="129.28" r="13.36"/><rect class="cls-5" x="96.26" y="104.46" width="186.13" height="186.13" rx="19.53"/><rect class="cls-4" x="147.19" y="120.36" width="69.87" height="5.13" rx="2.57"/><rect class="cls-4" x="123.41" y="162.23" width="120.64" height="8.61" rx="2.57"/><rect class="cls-6" x="147.19" y="134.48" width="32.68" height="5.13" rx="2.57"/><rect class="cls-6" x="116.05" y="193.47" width="42.3" height="16.05" rx="2.57"/><rect class="cls-6" x="164.39" y="193.47" width="46.64" height="16.05" rx="2.57"/><rect class="cls-6" x="116.05" y="216.62" width="51.06" height="16.05" rx="2.57"/><rect class="cls-7" x="230.09" y="262.13" width="39.83" height="16.05" rx="2.57"/><rect class="cls-6" x="217.07" y="216.62" width="34.34" height="16.05" rx="2.57"/><rect class="cls-6" x="217.07" y="193.47" width="39.23" height="16.05" rx="2.57"/><rect class="cls-6" x="248.13" y="118.43" width="21.79" height="14.12" rx="3.61"/><circle class="cls-4" cx="352.47" cy="127.3" r="13.36"/><rect class="cls-5" x="325.28" y="102.47" width="186.13" height="186.13" rx="19.53"/><rect class="cls-4" x="376.22" y="118.37" width="69.87" height="5.13" rx="2.57"/><rect class="cls-4" x="352.43" y="160.25" width="120.64" height="8.61" rx="2.57"/><rect class="cls-6" x="376.22" y="132.49" width="32.68" height="5.13" rx="2.57"/><rect class="cls-6" x="345.07" y="191.48" width="42.3" height="16.05" rx="2.57"/><rect class="cls-6" x="393.41" y="191.48" width="46.64" height="16.05" rx="2.57"/><rect class="cls-6" x="345.07" y="214.63" width="51.06" height="16.05" rx="2.57"/><rect class="cls-7" x="459.11" y="260.14" width="39.83" height="16.05" rx="2.57"/><rect class="cls-6" x="446.09" y="214.63" width="34.34" height="16.05" rx="2.57"/><rect class="cls-6" x="446.09" y="191.48" width="39.23" height="16.05" rx="2.57"/><rect class="cls-6" x="477.15" y="116.45" width="21.79" height="14.12" rx="3.61"/><circle class="cls-4" cx="581.49" cy="131.27" r="13.36"/><rect class="cls-5" x="554.3" y="106.44" width="186.13" height="186.13" rx="19.53"/><rect class="cls-4" x="605.24" y="122.35" width="69.87" height="5.13" rx="2.57"/><rect class="cls-4" x="581.45" y="164.22" width="120.64" height="8.61" rx="2.57"/><rect class="cls-6" x="605.24" y="136.46" width="32.68" height="5.13" rx="2.57"/><rect class="cls-6" x="574.09" y="195.45" width="42.3" height="16.05" rx="2.57"/><rect class="cls-6" x="622.43" y="195.45" width="46.64" height="16.05" rx="2.57"/><rect class="cls-6" x="574.09" y="218.6" width="51.06" height="16.05" rx="2.57"/><rect class="cls-7" x="688.13" y="264.11" width="39.83" height="16.05" rx="2.57"/><rect class="cls-6" x="675.11" y="218.6" width="34.34" height="16.05" rx="2.57"/><rect class="cls-6" x="675.11" y="195.45" width="39.23" height="16.05" rx="2.57"/><rect class="cls-6" x="706.17" y="120.42" width="21.79" height="14.12" rx="3.61"/><circle class="cls-4" cx="123.45" cy="343.79" r="13.36"/><rect class="cls-5" x="96.26" y="318.97" width="186.13" height="186.13" rx="19.53"/><rect class="cls-4" x="147.19" y="334.87" width="69.87" height="5.13" rx="2.57"/><rect class="cls-4" x="123.41" y="376.74" width="120.64" height="8.61" rx="2.57"/><rect class="cls-6" x="147.19" y="348.98" width="32.68" height="5.13" rx="2.57"/><rect class="cls-6" x="116.05" y="407.97" width="42.3" height="16.05" rx="2.57"/><rect class="cls-6" x="164.39" y="407.97" width="46.64" height="16.05" rx="2.57"/><rect class="cls-6" x="116.05" y="431.12" width="51.06" height="16.05" rx="2.57"/><rect class="cls-7" x="230.09" y="476.63" width="39.83" height="16.05" rx="2.57"/><rect class="cls-6" x="217.07" y="431.12" width="34.34" height="16.05" rx="2.57"/><rect class="cls-6" x="217.07" y="407.97" width="39.23" height="16.05" rx="2.57"/><rect class="cls-6" x="248.13" y="332.94" width="21.79" height="14.12" rx="3.61"/><circle class="cls-4" cx="352.47" cy="341.81" r="13.36"/><rect class="cls-5" x="325.28" y="316.98" width="186.13" height="186.13" rx="19.53"/><rect class="cls-4" x="376.22" y="332.88" width="69.87" height="5.13" rx="2.57"/><rect class="cls-4" x="352.43" y="374.75" width="120.64" height="8.61" rx="2.57"/><rect class="cls-6" x="376.22" y="347" width="32.68" height="5.13" rx="2.57"/><rect class="cls-6" x="345.07" y="405.99" width="42.3" height="16.05" rx="2.57"/><rect class="cls-6" x="393.41" y="405.99" width="46.64" height="16.05" rx="2.57"/><rect class="cls-6" x="345.07" y="429.14" width="51.06" height="16.05" rx="2.57"/><rect class="cls-7" x="459.11" y="474.65" width="39.83" height="16.05" rx="2.57"/><rect class="cls-6" x="446.09" y="429.14" width="34.34" height="16.05" rx="2.57"/><rect class="cls-6" x="446.09" y="405.99" width="39.23" height="16.05" rx="2.57"/><rect class="cls-6" x="477.15" y="330.96" width="21.79" height="14.12" rx="3.61"/><circle class="cls-4" cx="581.49" cy="345.78" r="13.36"/><rect class="cls-5" x="554.3" y="320.95" width="186.13" height="186.13" rx="19.53"/><rect class="cls-4" x="605.24" y="336.85" width="69.87" height="5.13" rx="2.57"/><rect class="cls-4" x="581.45" y="378.73" width="120.64" height="8.61" rx="2.57"/><rect class="cls-6" x="605.24" y="350.97" width="32.68" height="5.13" rx="2.57"/><rect class="cls-6" x="574.09" y="409.96" width="42.3" height="16.05" rx="2.57"/><rect class="cls-6" x="622.43" y="409.96" width="46.64" height="16.05" rx="2.57"/><rect class="cls-6" x="574.09" y="433.11" width="51.06" height="16.05" rx="2.57"/><rect class="cls-7" x="688.13" y="478.62" width="39.83" height="16.05" rx="2.57"/><rect class="cls-6" x="675.11" y="433.11" width="34.34" height="16.05" rx="2.57"/><rect class="cls-6" x="675.11" y="409.96" width="39.23" height="16.05" rx="2.57"/><rect class="cls-6" x="706.17" y="334.93" width="21.79" height="14.12" rx="3.61"/></svg>